<svg width="30" height="33" viewBox="0 0 30 33" fill="none" xmlns="http://www.w3.org/2000/svg">
<path d="M30 16.6159C30 7.92696 23.2863 0.887 15 0.887C6.71371 0.887 8.9407e-07 7.92696 8.9407e-07 16.6159C8.9407e-07 25.3049 6.71371 32.3448 15 32.3448C23.2863 32.3448 30 25.3049 30 16.6159ZM2.90323 16.6159C2.90323 9.60767 8.31653 3.93131 15 3.93131C21.6835 3.93131 27.0968 9.60767 27.0968 16.6159C27.0968 23.6242 21.6835 29.3005 15 29.3005C8.31653 29.3005 2.90323 23.6242 2.90323 16.6159ZM7.25807 17.8844V15.3475C7.25807 14.9289 7.58468 14.5864 7.98387 14.5864L15 14.5864V10.337C15 9.65841 15.7802 9.32227 16.2399 9.79794L22.2278 16.0768C22.5121 16.3749 22.5121 16.8569 22.2278 17.155L16.2399 23.4339C15.7802 23.9159 15 23.5734 15 22.8948V18.6455H7.98387C7.58468 18.6455 7.25807 18.303 7.25807 17.8844Z" fill="white"/>
</svg>
